<svg width="229" height="105" viewBox="0 0 229 105" fill="none" xmlns="http://www.w3.org/2000/svg">
<g clip-path="url(#clip0_252_3884)">
<path d="M49.8188 57.9771C49.8188 53.3932 49.74 48.9407 49.8622 44.4938C49.9041 42.9689 49.2487 42.5619 47.9854 42.4586C47.1188 42.3878 46.3168 42.2127 46.0416 41.1778C45.8332 40.3939 45.889 39.8827 46.8627 39.7977C48.4939 39.6553 50.117 39.3519 51.749 39.304C53.7079 39.2466 54.5777 40.1997 54.615 42.1645C54.6293 42.9174 54.6173 43.6707 54.6173 44.8369C55.1465 44.2508 55.4491 43.9273 55.7391 43.5928C58.8386 40.0178 62.5888 37.9974 67.4564 38.742C70.8643 39.2633 73.1186 41.4284 74.2973 44.4499C76.7279 50.6806 76.4519 56.8737 72.7444 62.5671C69.5951 67.4035 64.7811 68.8033 59.2745 68.2396C57.8794 68.0968 56.5037 67.7636 54.9162 67.4819C54.9162 68.7089 54.9162 69.805 54.9162 70.9012C54.9163 73.6159 54.9529 76.3314 54.8962 79.0449C54.8769 79.9665 55.1156 80.4662 56.0812 80.5671C56.6941 80.6312 57.3132 80.7694 57.8927 80.9774C58.3445 81.1395 59.128 81.5611 59.0938 81.6935C58.928 82.3352 58.5833 82.9513 58.1988 83.5044C58.0623 83.7009 57.6346 83.7669 57.3391 83.7684C53.8312 83.7872 50.3232 83.7761 46.8152 83.7887C45.9938 83.7916 45.8376 83.3904 46.0011 82.6744C46.2326 81.661 46.9589 81.2534 47.8678 81.0003C49.8215 80.4561 49.8188 80.4455 49.8188 78.4042C49.8189 71.6397 49.8188 64.8752 49.8188 57.9771ZM54.8856 48.3085C54.8856 52.6274 54.8856 56.9462 54.8856 61.2651C54.8856 64.1938 54.8596 64.2713 57.6082 65.1993C61.9078 66.6509 67.9388 65.6653 69.4913 59.5562C70.5974 55.2037 70.707 50.8366 69.4195 46.5203C68.795 44.4265 67.4764 42.8193 65.2003 42.2788C60.8447 41.2446 57.4185 43.7124 55.1024 46.9132C54.8955 47.1992 54.9517 47.6764 54.8856 48.3085Z" fill="#6F3CAC"/>
<path d="M28.0138 65.2984C33.1837 64.4122 35.9272 59.8816 34.106 55.3268C33.2923 53.292 31.4689 52.2485 29.6627 51.2925C26.917 49.8392 24.0849 48.5492 21.3479 47.0806C18.9298 45.7832 16.7488 44.1469 15.6782 41.4805C13.408 35.8265 15.3587 28.9 22.4752 27.0027C27.6724 25.617 32.5736 26.9549 37.338 29.0069C37.5699 29.1068 37.803 29.5799 37.7747 29.8518C37.513 32.3604 37.1938 34.863 36.8936 37.3483C35.1618 37.5051 34.6094 37.076 34.4229 35.5162C34.3491 34.8991 34.1525 34.2755 34.1992 33.6693C34.3476 31.7424 33.2369 30.8749 31.6251 30.3329C28.7535 29.3672 25.858 28.8157 22.9231 29.9943C18.5597 31.7466 17.6765 37.7745 21.4793 40.5454C23.4338 41.9696 25.6576 43.0528 27.8406 44.1248C30.831 45.5933 33.843 46.9666 36.4065 49.1857C41.2774 53.4021 40.3761 62.7952 34.5237 66.2834C31.5327 68.0661 28.302 68.5828 24.9229 68.3273C21.2792 68.0518 17.7423 67.2572 14.3647 65.8029C13.5297 65.4434 13.1208 65.0477 13.2921 64.0247C13.666 61.792 13.8817 59.5329 14.1792 57.2868C14.3349 56.1117 15.1296 55.8128 16.1883 55.8168C17.3493 55.8211 17.2495 56.6258 17.2846 57.3897C17.3499 58.8105 17.499 60.231 17.487 61.6505C17.4788 62.6321 17.8063 63.2158 18.7347 63.559C21.6959 64.6536 24.6362 65.8178 28.0138 65.2984Z" fill="#6F3CAC"/>
<path d="M207.149 57.1921C204.818 62.9219 202.655 68.6138 200.17 74.1617C198.662 77.5291 196.542 80.5837 193.549 82.896C191.923 84.1529 190.085 84.7405 188.061 84.3533C187.323 84.2123 186.392 83.8448 186.035 83.275C185.626 82.6208 185.618 81.6081 185.73 80.792C185.77 80.5049 186.663 80.2527 187.2 80.1386C187.888 79.9923 188.609 80.0019 189.316 79.9431C192.135 79.7087 194.393 78.4571 196.043 76.1531C196.481 75.5416 196.868 74.885 197.211 74.2145C199.863 69.0318 199.864 69.0265 197.717 63.6349C195.251 57.4445 192.679 51.2944 190.358 45.0503C189.686 43.2444 188.48 42.8307 186.943 42.4704C186.517 42.3705 185.805 41.8443 185.848 41.6761C186.013 41.0415 186.418 40.4633 186.775 39.8909C186.837 39.7919 187.107 39.7991 187.281 39.7988C190.826 39.794 194.37 39.7952 197.887 39.7952C198.254 41.4598 198.254 41.4598 194.736 43.0223C197.183 49.2221 199.634 55.4314 202.242 62.0393C204.716 55.5777 207.05 49.4799 209.45 43.21C208.561 42.9583 207.781 42.7072 206.985 42.5219C206.305 42.3633 205.668 42.2607 205.807 41.2933C205.941 40.3666 206.372 39.8054 207.346 39.7982C209.033 39.7857 210.721 39.7927 212.408 39.792C213.685 39.7915 214.962 39.7919 216.292 39.7919C216.396 41.2052 215.979 42.1185 214.625 42.3152C213.015 42.5491 212.298 43.5525 211.773 45.0126C210.315 49.0659 208.721 53.0701 207.149 57.1921Z" fill="#6F3CAC"/>
<path d="M183.499 67.2332C183.004 67.4035 182.583 67.5736 182.161 67.5763C178.787 67.5984 175.413 67.6035 172.039 67.5705C171.613 67.5663 171.189 67.3113 170.764 67.1726C170.962 66.6056 171.116 66.0171 171.38 65.4834C171.472 65.2986 171.831 65.2353 172.077 65.1412C174.718 64.1324 174.719 64.1338 174.719 61.2566C174.719 49.7332 174.698 38.2096 174.748 26.6864C174.753 25.381 174.373 24.8958 173.072 24.7653C171.025 24.5601 170.839 24.2702 170.744 22.0587C173.09 21.9298 175.45 21.6837 177.806 21.7149C179.194 21.7332 179.608 22.9894 179.817 24.1799C179.908 24.7003 179.905 25.2414 179.905 25.7731C179.909 38.0529 179.923 50.3327 179.885 62.6124C179.881 63.7921 180.121 64.477 181.423 64.5008C181.852 64.5086 182.276 64.7287 182.704 64.8442C184.493 65.3268 184.583 65.5635 183.499 67.2332Z" fill="#6F3CAC"/>
<path d="M147.063 57.9771C147.064 59.8027 147.114 61.4969 147.043 63.1859C147.007 64.0662 147.304 64.516 148.156 64.6445C148.506 64.6973 148.892 64.7274 149.183 64.9006C149.646 65.1763 150.043 65.5632 150.468 65.903C150.022 66.4579 149.593 67.4776 149.128 67.4941C145.415 67.6258 141.695 67.5676 137.985 67.5676C137.622 66.1006 138.275 65.4287 139.426 65.0169C141.857 64.1467 141.853 64.1349 141.853 61.5599C141.853 50.1609 141.856 38.7618 141.851 27.3628C141.849 24.6247 142.102 25.1964 139.69 24.6975C138.875 24.5288 138.105 24.3959 137.895 23.4089C137.745 22.7048 137.821 22.1542 138.695 22.0871C140.681 21.9343 142.675 21.6311 144.651 21.7207C145.36 21.7529 146.232 22.6151 146.653 23.3234C147.048 23.9895 147.047 24.9518 147.048 25.7841C147.071 36.4705 147.064 47.157 147.063 57.9771Z" fill="#6F3CAC"/>
<path d="M129.381 42.6331C128.16 42.9489 126.957 43.1176 125.952 43.6578C125 44.1697 124.225 45.0387 123.429 45.8095C122.57 46.6413 122.214 47.6311 122.237 48.9025C122.322 53.5276 122.303 58.1556 122.245 62.7815C122.232 63.7881 122.561 64.2615 123.513 64.3984C124.038 64.474 124.579 64.5409 125.071 64.7228C125.72 64.9624 126.85 64.6585 126.65 65.9904C126.475 67.1646 125.814 67.6358 124.632 67.6147C122.103 67.5696 119.572 67.6009 117.042 67.601C115.852 67.601 114.662 67.6009 113.503 67.6009C113.191 66.0682 113.522 65.4974 114.912 64.9848C117.058 64.1929 117.058 64.1929 117.058 61.8858C117.058 56.058 117.058 50.2302 117.058 44.4025C117.058 43.9195 117.058 43.4366 117.058 42.8527C116.246 42.6945 115.52 42.5489 114.791 42.412C113.836 42.2323 113.226 41.7041 113.328 40.691C113.359 40.382 113.748 39.9034 114.029 39.8594C115.646 39.606 117.276 39.3679 118.908 39.3018C120.715 39.2287 121.698 40.2106 121.822 42.0401C121.884 42.9486 121.833 43.8648 121.833 44.7775C121.94 44.8059 122.047 44.8343 122.153 44.8626C122.695 44.1425 123.207 43.3984 123.783 42.7068C125.504 40.6382 127.554 39.0679 130.286 38.6103C132.795 38.19 134.826 39.2138 135.178 41.327C135.335 42.2669 135.034 43.4377 134.561 44.2925C133.888 45.509 133.036 45.3077 132.073 44.306C131.382 43.5878 130.36 43.1894 129.381 42.6331Z" fill="#6F3CAC"/>
<path d="M153.549 60.9256C151.708 58.3567 149.981 55.8196 148.124 53.3821C147.267 52.2578 147.484 51.6284 148.502 50.7794C151.093 48.6183 153.589 46.342 156.115 44.1027C156.368 43.8785 156.566 43.5918 156.924 43.1786C155.92 42.8394 155.058 42.5483 154.215 42.2632C154.021 40.3039 154.457 39.7965 156.303 39.7957C159.402 39.7942 162.501 39.7953 165.651 39.7953C165.853 40.909 165.888 41.9762 164.749 42.221C161.4 42.9414 159.33 45.4762 156.906 47.5111C155.716 48.5098 154.618 49.6192 153.432 50.6223C152.724 51.2211 152.602 51.7128 153.203 52.5082C156.902 57.4081 161.041 61.8283 166.449 64.875C167.369 65.3931 167.495 65.9473 166.99 66.8124C166.212 68.1437 164.414 68.7133 162.49 68.1752C160.237 67.5451 158.449 66.166 156.843 64.5403C155.72 63.4041 154.684 62.182 153.549 60.9256Z" fill="#6F3CAC"/>
<path d="M83.9279 68.0611C82.2097 67.9078 81.0647 67.1047 80.6202 65.5178C80.2186 64.0839 80.8361 62.9342 81.8356 61.935C87.1387 56.6336 92.4366 51.3269 97.6269 46.1316C99.1331 47.6548 100.612 49.1501 102.185 50.7408C102.128 50.8068 101.897 51.1158 101.627 51.3865C96.583 56.4487 91.5519 61.5241 86.4654 66.5432C85.8018 67.198 84.8492 67.5587 83.9279 68.0611Z" fill="#F5DB53"/>
<path d="M103.776 49.2112C103.418 49.1348 103.073 49.0598 102.851 48.852C101.528 47.6142 100.234 46.3458 98.7485 44.9117C99.8738 43.8832 100.792 42.8734 101.876 42.0971C103.19 41.1559 104.791 41.4823 105.912 42.7053C106.896 43.7801 107.001 45.7104 106.05 46.8545C105.373 47.6687 104.584 48.3891 103.776 49.2112Z" fill="#F5DB53"/>
<path d="M102.964 59.8629C103.567 58.5277 103.543 57.2991 103.066 56.0281C102.746 55.172 102.956 54.8334 104.016 55.0044C105.15 55.1875 106.351 55.1684 107.494 55.0165C108.431 54.8919 108.836 55.0612 108.533 56.0021C108.138 57.2261 108.113 58.4062 108.521 59.6331C108.811 60.5046 108.493 61.0122 107.532 60.6192C106.312 60.12 105.148 60.1889 103.962 60.683C103.276 60.9687 102.959 60.6579 102.964 59.8629Z" fill="#F5DB53"/>
<path d="M91.5026 41.7951C91.6444 42.2371 91.769 42.5676 91.8579 42.9074C92.0752 43.7378 91.7666 44.1808 90.9209 43.8751C89.6582 43.4187 88.4513 43.414 87.1952 43.8822C86.3381 44.2017 86.1227 43.639 86.3368 42.9747C86.7429 41.7147 86.8196 40.4949 86.3619 39.233C86.0254 38.3051 86.615 38.0428 87.3231 38.2786C88.5349 38.6821 89.6635 38.6911 90.8858 38.2805C91.6892 38.0106 92.1372 38.3537 91.8164 39.3598C91.5811 40.0975 91.5765 40.9091 91.5026 41.7951Z" fill="#F5DB53"/>
<path d="M85.0477 47.3394C85.9934 47.3851 85.9538 47.9562 85.7304 48.4724C85.2232 49.6446 85.2785 50.7708 85.7324 51.9403C86.0301 52.7071 85.6665 53.3472 84.8824 53.0349C83.4993 52.4841 82.2271 52.6485 80.9038 53.0811C80.7573 53.129 80.5682 53.0461 80.491 53.0359C80.491 51.1498 80.491 49.3213 80.491 47.6481C81.904 47.5511 83.4217 47.4469 85.0477 47.3394Z" fill="#F5DB53"/>
</g>
<defs>
<clipPath id="clip0_252_3884">
<rect width="229" height="105" fill="white"/>
</clipPath>
</defs>
</svg>
