<svg width="34" height="34" viewBox="0 0 34 34" fill="none" xmlns="http://www.w3.org/2000/svg">
<path d="M2.83341 7.46579L4.64675 5.66663L28.3334 29.3533L26.5342 31.1666L22.1709 26.8033C20.5417 27.3416 18.8134 27.625 17.0001 27.625C9.91675 27.625 3.86758 23.2191 1.41675 17C2.39425 14.5066 3.95258 12.3108 5.93591 10.5683L2.83341 7.46579ZM17.0001 12.75C18.1272 12.75 19.2083 13.1977 20.0053 13.9948C20.8023 14.7918 21.2501 15.8728 21.2501 17C21.2508 17.4824 21.1694 17.9615 21.0092 18.4166L15.5834 12.9908C16.0385 12.8307 16.5176 12.7492 17.0001 12.75ZM17.0001 6.37496C24.0834 6.37496 30.1326 10.7808 32.5834 17C31.4265 19.9366 29.4619 22.4857 26.9167 24.3525L24.9051 22.3266C26.8643 20.9715 28.4443 19.1379 29.4951 17C28.3499 14.6623 26.5718 12.6928 24.363 11.3154C22.1542 9.93798 19.6032 9.20796 17.0001 9.20829C15.4559 9.20829 13.9401 9.46329 12.5234 9.91663L10.3417 7.74913C12.3817 6.87079 14.6342 6.37496 17.0001 6.37496ZM4.50508 17C5.65024 19.3376 7.42831 21.3071 9.63715 22.6845C11.846 24.0619 14.397 24.792 17.0001 24.7916C17.9776 24.7916 18.9409 24.6925 19.8334 24.4941L16.6034 21.25C15.6176 21.1443 14.6977 20.7044 13.9967 20.0033C13.2957 19.3023 12.8557 18.3824 12.7501 17.3966L7.93341 12.5658C6.53091 13.77 5.35508 15.2716 4.50508 17Z" fill="#8BAC92"/>
</svg>
